<?xml version="1.0" encoding="utf-8"?>
<!-- Generator: Adobe Illustrator 19.1.0, SVG Export Plug-In . SVG Version: 6.00 Build 0)  -->
<svg version="1.1" id="レイヤー_1" xmlns="http://www.w3.org/2000/svg" xmlns:xlink="http://www.w3.org/1999/xlink" x="0px"
	 y="0px" viewBox="0 0 467.1 281.2" style="enable-background:new 0 0 467.1 281.2;" xml:space="preserve">
<style type="text/css">
	.st0{opacity:0.41;}
</style>
<g class="st0">
	<path d="M274.7,128.6c2.4,0,3.3,0.9,3.5,1.6c0.3,0.7,0.5,2-1.3,3.7l-3.9,3.8c-0.6,0.5-1.5,0.9-2.3,0.9h-17.1c-0.1,0-0.2,0-0.2,0
		l-3.9,3.7c-0.2,0.2-0.3,0.2-0.4,0.3c0.1,0,0.3,0,0.6,0h9.9c2.4,0,3.3,1.2,3.5,1.9c0.3,0.7,0.5,2.1-1.3,3.8l-19,18.4
		c-0.6,0.5-1.5,1-2.3,1h-31.3c-2.4,0-3.3-1.2-3.6-1.9c-0.3-0.7-0.5-2.1,1.3-3.8l3.9-3.6c0.6-0.5,1.5-0.7,2.3-0.7h25.2
		c0.1,0,0.2-0.2,0.2-0.3l3.9-3.8c0.2-0.2,0.3-0.5,0.4-0.6c-0.1,0-0.3-0.3-0.6-0.3h-10.7c-2.4,0-3.3-1-3.5-1.6
		c-0.3-0.7-0.5-2,1.3-3.7l19-18c0.6-0.5,1.5-0.6,2.3-0.6H274.7z"/>
	<path d="M250.6,129.7h24c2.4,0,3,1.4,1.2,3l-3.9,3.8c-0.3,0.3-0.8,0.5-1.2,0.5h-17.2c-0.4,0-0.9,0.2-1.2,0.5l-3.9,3.8
		c-1.7,1.7-1.2,3,1.2,3h9.9c2.4,0,3,1.4,1.2,3l-19,18.3c-0.3,0.3-0.8,0.5-1.2,0.5h-31.3c-2.4,0-3-1.4-1.2-3l3.9-3.8
		c0.3-0.3,0.8-0.5,1.2-0.5h25.3c0.4,0,0.9-0.2,1.2-0.5l3.9-3.8c1.7-1.7,1.2-3-1.2-3h-10.7c-2.4,0-3-1.4-1.2-3l19-18.3
		C249.7,129.9,250.2,129.7,250.6,129.7z"/>
</g>
<path class="st0" d="M257.7,113.6c2.4,0,3.3,1.1,3.5,1.8c0.3,0.7,0.5,2.1-1.3,3.8l-3.9,3.6c-0.6,0.5-1.5,0.8-2.3,0.8h-25.2
	c-0.1,0-0.2,0.2-0.2,0.2l-3.9,3.8c-0.2,0.2-0.3,0.6-0.4,0.7c0.1,0,0.3,0.3,0.6,0.3h10.7c2.4,0,3.3,0.9,3.5,1.6
	c0.3,0.7,0.5,2-1.3,3.7l-19,18.1c-0.6,0.5-1.5,0.7-2.3,0.7h-24c-2.4,0-3.3-1-3.5-1.6c-0.3-0.7-0.5-2,1.3-3.7l3.9-3.8
	c0.6-0.5,1.5-0.9,2.3-0.9h16.3c0.1,0,0.2,0,0.2,0l3.9-3.7c0.2-0.2,0.3-0.2,0.4-0.3c-0.1,0-0.3,0.1-0.6,0.1h-9.1
	c-2.4,0-3.3-1.2-3.5-1.9c-0.3-0.7-0.5-2.1,1.3-3.8l19-18.3c0.6-0.5,1.5-0.9,2.3-0.9H257.7z"/>
</svg>
