<?xml version="1.0" encoding="utf-8"?>
<!-- Generator: Adobe Illustrator 19.1.0, SVG Export Plug-In . SVG Version: 6.00 Build 0)  -->
<svg version="1.1" id="レイヤー_1" xmlns="http://www.w3.org/2000/svg" xmlns:xlink="http://www.w3.org/1999/xlink" x="0px"
	 y="0px" viewBox="0 0 128 128" style="enable-background:new 0 0 128 128;" xml:space="preserve">
<style type="text/css">
	.st0{fill:#FFFFFF;}
</style>
<path d="M87.7,14.1C87.7,14.1,87.9,14.2,87.7,14.1"/>
<path d="M53.8,113.7C53.8,113.7,53.7,113.6,53.8,113.7"/>
<g>
	<g>
		<path class="st0" d="M86.3,5.1c-23.5-8.7-49.6,4-58.5,27.1C18.7,56,32.4,81.3,54.9,90.7c5,2.1,11-2.2,12.3-7
			c1.6-5.8-2-10.2-7-12.3c-12.8-5.3-18.6-21.5-13.1-33.9c5.9-13.3,21-17.9,33.9-13.1c5.1,1.9,11-2.1,12.3-7
			C94.9,11.8,91.4,7,86.3,5.1L86.3,5.1z"/>
	</g>
</g>
<g>
	<g>
		<path class="st0" d="M41.6,123.3c23.5,8.7,49.6-4,58.5-27.1c9.2-23.8-4.5-49.1-27.1-58.5c-5-2.1-11,2.2-12.3,7
			c-1.6,5.8,2,10.2,7,12.3c12.8,5.3,18.6,21.5,13.1,33.9c-5.9,13.3-21,17.9-33.9,13.1c-5.1-1.9-11,2.1-12.3,7
			C33.1,116.6,36.6,121.4,41.6,123.3L41.6,123.3z"/>
	</g>
</g>
</svg>
