<?xml version="1.0" encoding="utf-8"?>
<!-- Generator: Adobe Illustrator 19.1.0, SVG Export Plug-In . SVG Version: 6.00 Build 0)  -->
<svg version="1.1" id="レイヤー_1" xmlns="http://www.w3.org/2000/svg" xmlns:xlink="http://www.w3.org/1999/xlink" x="0px"
	 y="0px" viewBox="0 0 367 367" style="enable-background:new 0 0 367 367;" xml:space="preserve">
<style type="text/css">
	.st0{fill:#FFFFFF;}
</style>
<g>
	<path class="st0" d="M119.2,228.8H23.1c-9.6,0-11.8-5.5-4.9-12.1l15.5-15c1.1-1.1,3.3-2,4.9-2h68.7c1.6,0,3.8-0.9,4.9-2l15.5-15
		c6.9-6.7,4.7-12.1-4.9-12.1H83.4c-9.6,0-11.8-5.5-4.9-12.1l75.8-73.2c1.1-1.1,3.3-2,4.9-2h125.2c9.6,0,11.8,5.5,4.9,12.1l-15.5,15
		c-1.1,1.1-3.3,2-4.9,2h-101c-1.6,0-3.8,0.9-4.9,2l-15.5,15c-6.9,6.7-4.7,12.1,4.9,12.1H195c9.6,0,11.8,5.5,4.9,12.1l-75.8,73.2
		C123,227.9,120.8,228.8,119.2,228.8z"/>
</g>
<path class="st0" d="M255.9,141.5H352c9.6,0,11.8,5.5,4.9,12.1l-15.5,15c-1.1,1.1-3.3,2-4.9,2H271c-1.6,0-3.8,0.9-4.9,2l-15.5,15
	c-6.9,6.7-4.7,12.1,4.9,12.1h36.2c9.6,0,11.8,5.5,4.9,12.1L220.8,285c-1.1,1.1-3.3,2-4.9,2H90.7c-9.6,0-11.8-5.5-4.9-12.1l15.5-15
	c1.1-1.1,3.3-2,4.9-2h101c1.6,0,3.8-0.9,4.9-2l15.5-15c6.9-6.7,4.7-12.1-4.9-12.1h-42.7c-9.6,0-11.8-5.5-4.9-12.1l75.8-73.2
	C252.1,142.4,254.3,141.5,255.9,141.5z"/>
</svg>
